<svg id="Layer_1" data-name="Layer 1" xmlns="http://www.w3.org/2000/svg" viewBox="0 0 500 380"><defs><style>.cls-1{fill:#fff;}</style></defs><path class="cls-1" d="M1208.96774,381H788.96768a39.99992,39.99992,0,0,0-39.99994,39.99994V421a40,40,0,0,0,39.99994,40h420.00006a40,40,0,0,0,40-40v-.00006A39.99994,39.99994,0,0,0,1208.96774,381Zm0,70h-420a30,30,0,0,1,0-60h420a30,30,0,0,1,0,60Z" transform="translate(-748.96774 -381)"/><path class="cls-1" d="M1208.96774,531H788.96768a39.99992,39.99992,0,0,0-39.99994,39.99994V571a40,40,0,0,0,39.99994,40h420.00006a40,40,0,0,0,40-40v-.00006A39.99994,39.99994,0,0,0,1208.96774,531Zm0,70h-420a30,30,0,0,1,0-60h420a30,30,0,0,1,0,60Z" transform="translate(-748.96774 -381)"/><path class="cls-1" d="M1208.96774,681H788.96768a39.99992,39.99992,0,0,0-39.99994,39.99994V721a40,40,0,0,0,39.99994,40h420.00006a40,40,0,0,0,40-40v-.00006A39.99994,39.99994,0,0,0,1208.96774,681Zm0,70h-420a30,30,0,0,1,0-60h420a30,30,0,0,1,0,60Z" transform="translate(-748.96774 -381)"/></svg>